<svg width="20" height="200" xmlns="http://www.w3.org/2000/svg">
  <rect width="10" height="10" x="0" y="0" fill="black"/>
  <rect width="10" height="10" x="10" y="0" fill="white"/>
  <rect width="10" height="10" x="0" y="10" fill="white"/>
  <rect width="10" height="10" x="10" y="10" fill="black"/>
  <rect width="10" height="10" x="0" y="20" fill="black"/>
  <rect width="10" height="10" x="10" y="20" fill="white"/>
  <rect width="10" height="10" x="0" y="30" fill="white"/>
  <rect width="10" height="10" x="10" y="30" fill="black"/>
  <rect width="10" height="10" x="0" y="40" fill="black"/>
  <rect width="10" height="10" x="10" y="40" fill="white"/>
  <rect width="10" height="10" x="0" y="50" fill="white"/>
  <rect width="10" height="10" x="10" y="50" fill="black"/>
  <rect width="10" height="10" x="0" y="60" fill="black"/>
  <rect width="10" height="10" x="10" y="60" fill="white"/>
  <rect width="10" height="10" x="0" y="70" fill="white"/>
  <rect width="10" height="10" x="10" y="70" fill="black"/>
  <rect width="10" height="10" x="0" y="80" fill="black"/>
  <rect width="10" height="10" x="10" y="80" fill="white"/>
  <rect width="10" height="10" x="0" y="90" fill="white"/>
  <rect width="10" height="10" x="10" y="90" fill="black"/>
  <rect width="10" height="10" x="0" y="100" fill="black"/>
  <rect width="10" height="10" x="10" y="100" fill="white"/>
  <rect width="10" height="10" x="0" y="110" fill="white"/>
  <rect width="10" height="10" x="10" y="110" fill="black"/>
  <rect width="10" height="10" x="0" y="120" fill="black"/>
  <rect width="10" height="10" x="10" y="120" fill="white"/>
  <rect width="10" height="10" x="0" y="130" fill="white"/>
  <rect width="10" height="10" x="10" y="130" fill="black"/>
  <rect width="10" height="10" x="0" y="140" fill="black"/>
  <rect width="10" height="10" x="10" y="140" fill="white"/>
  <rect width="10" height="10" x="0" y="150" fill="white"/>
  <rect width="10" height="10" x="10" y="150" fill="black"/>
  <rect width="10" height="10" x="0" y="160" fill="black"/>
  <rect width="10" height="10" x="10" y="160" fill="white"/>
  <rect width="10" height="10" x="0" y="170" fill="white"/>
  <rect width="10" height="10" x="10" y="170" fill="black"/>
  <rect width="10" height="10" x="0" y="180" fill="black"/>
  <rect width="10" height="10" x="10" y="180" fill="white"/>
  <rect width="10" height="10" x="0" y="190" fill="white"/>
  <rect width="10" height="10" x="10" y="190" fill="black"/>
</svg>
